<?xml version="1.0" encoding="UTF-8" standalone="no"?>
<!DOCTYPE svg PUBLIC "-//W3C//DTD SVG 1.1//EN" "http://www.w3.org/Graphics/SVG/1.1/DTD/svg11.dtd">
<svg version="1.1" xmlns="http://www.w3.org/2000/svg" xmlns:xlink="http://www.w3.org/1999/xlink" preserveAspectRatio="xMidYMid meet" viewBox="0 0 1920 1080" width="1920" height="1080"><defs><path d="M2110 877.5C2110 656.73 1930.77 477.5 1710 477.5C1489.23 477.5 1310 656.73 1310 877.5C1310 1098.27 1489.23 1277.5 1710 1277.5C1930.77 1277.5 2110 1098.27 2110 877.5Z" id="apiKPvmlM"></path><path d="M0 1080L1920 1080L1920 851.63C1833.19 926.44 1721.29 968.81 1584.3 978.75C1447.31 988.69 1285.23 966.19 1098.07 911.25L630 810C495.69 793.24 375.69 798.92 270 827.05C164.31 855.17 74.31 905.74 0 978.75L0 1080Z" id="l1vhVh9fqi"></path><path d="M1440 159.69C1440 593.11 1080.44 945 637.55 945C194.67 945 -164.89 593.11 -164.89 159.69C-164.89 -273.74 194.67 -625.63 637.55 -625.63C1080.44 -625.63 1440 -273.74 1440 159.69Z" id="e3GKDIpE3x"></path><path d="M1920 272.98C1636 305.99 1418.09 299.75 1266.28 254.25C1114.48 208.75 1028.77 124 1009.16 0L1920 0L1920 272.98Z" id="ed3yWVPA"></path></defs><g><g><g><g><filter id="shadow8500410" x="1252" y="419.5" width="916" height="916" filterUnits="userSpaceOnUse" primitiveUnits="userSpaceOnUse"><feFlood></feFlood><feComposite in2="SourceAlpha" operator="in"></feComposite><feGaussianBlur stdDeviation="5"></feGaussianBlur><feOffset dx="0" dy="0" result="afterOffset"></feOffset><feFlood flood-color="#000000" flood-opacity="0.1"></feFlood><feComposite in2="afterOffset" operator="in"></feComposite><feMorphology operator="dilate" radius="3"></feMorphology><feComposite in2="SourceAlpha" operator="out"></feComposite></filter><path d="M2110 877.5C2110 656.73 1930.77 477.5 1710 477.5C1489.23 477.5 1310 656.73 1310 877.5C1310 1098.27 1489.23 1277.5 1710 1277.5C1930.77 1277.5 2110 1098.27 2110 877.5Z" id="bbLifDDXG" fill="white" fill-opacity="1" filter="url(#shadow8500410)"></path></g><use xlink:href="#apiKPvmlM" opacity="1" fill="#b5f4e1" fill-opacity="1"></use></g><g><use xlink:href="#l1vhVh9fqi" opacity="1" fill="#ffffff" fill-opacity="1"></use><g><use xlink:href="#l1vhVh9fqi" opacity="1" fill-opacity="0" stroke="#000000" stroke-width="0" stroke-opacity="1"></use></g></g><g><g><filter id="shadow1690596" x="-289.89" y="-750.63" width="1854.89" height="1820.63" filterUnits="userSpaceOnUse" primitiveUnits="userSpaceOnUse"><feFlood></feFlood><feComposite in2="SourceAlpha" operator="in"></feComposite><feGaussianBlur stdDeviation="7.07"></feGaussianBlur><feOffset dx="0" dy="0" result="afterOffset"></feOffset><feFlood flood-color="#000000" flood-opacity="0.1"></feFlood><feComposite in2="afterOffset" operator="in"></feComposite><feMorphology operator="dilate" radius="20"></feMorphology><feComposite in2="SourceAlpha" operator="out"></feComposite></filter><path d="M1440 159.69C1440 593.11 1080.44 945 637.55 945C194.67 945 -164.89 593.11 -164.89 159.69C-164.89 -273.74 194.67 -625.63 637.55 -625.63C1080.44 -625.63 1440 -273.74 1440 159.69Z" id="a2vbtDCckB" fill="white" fill-opacity="1" filter="url(#shadow1690596)"></path></g><use xlink:href="#e3GKDIpE3x" opacity="1" fill="#ffffff" fill-opacity="1"></use></g><g><g><filter id="shadow14623569" x="889.16" y="-120" width="1150.84" height="533.8" filterUnits="userSpaceOnUse" primitiveUnits="userSpaceOnUse"><feFlood></feFlood><feComposite in2="SourceAlpha" operator="in"></feComposite><feGaussianBlur stdDeviation="7.07"></feGaussianBlur><feOffset dx="0" dy="0" result="afterOffset"></feOffset><feFlood flood-color="#000000" flood-opacity="0.1"></feFlood><feComposite in2="afterOffset" operator="in"></feComposite><feMorphology operator="dilate" radius="15"></feMorphology><feComposite in2="SourceAlpha" operator="out"></feComposite></filter><path d="M1920 272.98C1636 305.99 1418.09 299.75 1266.28 254.25C1114.48 208.75 1028.77 124 1009.16 0L1920 0L1920 272.98Z" id="igrgrLGWl" fill="white" fill-opacity="1" filter="url(#shadow14623569)"></path></g><use xlink:href="#ed3yWVPA" opacity="1" fill="#6453f7" fill-opacity="1"></use><g><use xlink:href="#ed3yWVPA" opacity="1" fill-opacity="0" stroke="#000000" stroke-width="0" stroke-opacity="1"></use></g></g></g></g></svg>