<?xml version="1.0" encoding="UTF-8" standalone="no"?>
<!DOCTYPE svg PUBLIC "-//W3C//DTD SVG 1.1//EN" "http://www.w3.org/Graphics/SVG/1.1/DTD/svg11.dtd">
<svg version="1.1" xmlns="http://www.w3.org/2000/svg" xmlns:xlink="http://www.w3.org/1999/xlink" preserveAspectRatio="xMidYMid meet" viewBox="0 0 500 299.52" width="500" height="300"><defs><path d="M321.1 299.52C320.18 297.88 319.6 296.86 319.37 296.45C306.62 273.96 288.05 255.31 265.6 242.48C259.36 238.91 272.46 246.4 265.6 242.48C244.81 230.61 224.98 217.14 206.27 202.2C202.52 199.2 211.89 206.68 206.27 202.2C193.96 192.36 184.32 179.57 178.25 165.03C176.97 161.97 180.1 169.46 178.25 165.03C174.04 154.95 171.88 144.14 171.88 133.22C171.88 129.9 171.88 136.53 171.88 133.22C171.88 122.27 174 111.43 178.14 101.29C180.01 96.7 176.89 104.36 178.14 101.29C184.35 86.06 192.54 71.72 202.49 58.62C207.99 51.37 210.47 48.11 216.21 40.55C225.29 28.6 231.5 14.73 234.38 0C234.38 0 234.38 0 234.38 0L0 0L0 299.52L321.1 299.52Z" id="f1dPDF0Eqz"></path></defs><g><g><g><g><filter id="shadow9398888" x="-19" y="-19" width="359.1" height="338.52" filterUnits="userSpaceOnUse" primitiveUnits="userSpaceOnUse"><feFlood></feFlood><feComposite in2="SourceAlpha" operator="in"></feComposite><feGaussianBlur stdDeviation="2.24"></feGaussianBlur><feOffset dx="0" dy="1" result="afterOffset"></feOffset><feFlood flood-color="#000000" flood-opacity="0.1"></feFlood><feComposite in2="afterOffset" operator="in"></feComposite><feMorphology operator="dilate" radius="3"></feMorphology><feComposite in2="SourceAlpha" operator="out"></feComposite></filter><path d="M321.1 299.52C320.18 297.88 319.6 296.86 319.37 296.45C306.62 273.96 288.05 255.31 265.6 242.48C259.36 238.91 272.46 246.4 265.6 242.48C244.81 230.61 224.98 217.14 206.27 202.2C202.52 199.2 211.89 206.68 206.27 202.2C193.96 192.36 184.32 179.57 178.25 165.03C176.97 161.97 180.1 169.46 178.25 165.03C174.04 154.95 171.88 144.14 171.88 133.22C171.88 129.9 171.88 136.53 171.88 133.22C171.88 122.27 174 111.43 178.14 101.29C180.01 96.7 176.89 104.36 178.14 101.29C184.35 86.06 192.54 71.72 202.49 58.62C207.99 51.37 210.47 48.11 216.21 40.55C225.29 28.6 231.5 14.73 234.38 0C234.38 0 234.38 0 234.38 0L0 0L0 299.52L321.1 299.52Z" id="a1xG7qzSSF" fill="white" fill-opacity="1" filter="url(#shadow9398888)"></path></g><use xlink:href="#f1dPDF0Eqz" opacity="1" fill="#002998" fill-opacity="1"></use><g><use xlink:href="#f1dPDF0Eqz" opacity="1" fill-opacity="0" stroke="#000000" stroke-width="0" stroke-opacity="1"></use></g></g></g></g></svg>