<?xml version="1.0" encoding="UTF-8" standalone="no"?>
<!DOCTYPE svg PUBLIC "-//W3C//DTD SVG 1.1//EN" "http://www.w3.org/Graphics/SVG/1.1/DTD/svg11.dtd">
<svg version="1.1" xmlns="http://www.w3.org/2000/svg" xmlns:xlink="http://www.w3.org/1999/xlink" preserveAspectRatio="xMidYMid meet" viewBox="0 0 500 299.52" width="497.46" height="298"><defs><path d="M321.1 0C321.1 0 321.1 0 321.1 0C272.06 102.92 168.21 168.48 54.2 168.48C43.36 168.48 51.15 168.48 3.73 168.48C1.67 168.48 0 166.81 0 164.75C0 142.78 0 87.87 0 0L321.1 0Z" id="cUkJxWlFK"></path></defs><g><g><g><g><filter id="shadow10334000" x="-19" y="-19" width="359.1" height="207.48" filterUnits="userSpaceOnUse" primitiveUnits="userSpaceOnUse"><feFlood></feFlood><feComposite in2="SourceAlpha" operator="in"></feComposite><feGaussianBlur stdDeviation="2.24"></feGaussianBlur><feOffset dx="0" dy="1" result="afterOffset"></feOffset><feFlood flood-color="#000000" flood-opacity="0.1"></feFlood><feComposite in2="afterOffset" operator="in"></feComposite><feMorphology operator="dilate" radius="3"></feMorphology><feComposite in2="SourceAlpha" operator="out"></feComposite></filter><path d="M321.1 0C321.1 0 321.1 0 321.1 0C272.06 102.92 168.21 168.48 54.2 168.48C43.36 168.48 51.15 168.48 3.73 168.48C1.67 168.48 0 166.81 0 164.75C0 142.78 0 87.87 0 0L321.1 0Z" id="ad5YCJmyw" fill="white" fill-opacity="1" filter="url(#shadow10334000)"></path></g><use xlink:href="#cUkJxWlFK" opacity="1" fill="#002998" fill-opacity="1"></use><g><use xlink:href="#cUkJxWlFK" opacity="1" fill-opacity="0" stroke="#000000" stroke-width="0" stroke-opacity="1"></use></g></g></g></g></svg>