<?xml version="1.0" encoding="UTF-8" standalone="no"?>
<!DOCTYPE svg PUBLIC "-//W3C//DTD SVG 1.1//EN" "http://www.w3.org/Graphics/SVG/1.1/DTD/svg11.dtd">
<svg version="1.1" xmlns="http://www.w3.org/2000/svg" xmlns:xlink="http://www.w3.org/1999/xlink" preserveAspectRatio="xMidYMid meet" viewBox="0 0 640 640" width="640" height="640"><defs><path d="M462.91 75.38C532.74 75.38 589.35 131.99 589.35 201.82C589.35 280.4 589.35 393.96 589.35 473.61C589.35 540.5 535.13 594.73 468.23 594.73C384.71 594.73 257.72 594.73 174.81 594.73C106.24 594.73 50.65 539.14 50.65 470.57C50.65 391.53 50.65 273.71 50.65 193.46C50.65 128.24 103.51 75.38 168.73 75.38C252.85 75.38 380.46 75.38 462.91 75.38Z" id="dHuUfbdvq"></path><linearGradient id="gradienta8DWF0BQm" gradientUnits="userSpaceOnUse" x1="50.65" y1="73.23" x2="589.35" y2="594.73"><stop style="stop-color: #ffe53b;stop-opacity: 1" offset="0%"></stop><stop style="stop-color: #ff2525;stop-opacity: 1" offset="100%"></stop></linearGradient><path d="M451.36 248.23C446.06 246.48 442.53 237.72 445.18 228.95C446.94 220.19 453.12 214.93 458.42 215.81C463.72 217.56 467.25 225.45 465.49 234.21C463.72 242.97 457.54 249.98 451.36 248.23Z" id="fmdoNDQG1"></path><path d="M367.47 248.23C372.77 246.48 376.3 237.72 373.65 228.95C371.88 220.19 365.7 214.93 360.4 215.81C355.11 217.56 351.57 225.45 353.34 234.21C355.1 242.97 361.29 249.98 367.47 248.23Z" id="b5Yf4nCQhe"></path><path d="M515.82 327.98C512.29 315.71 502.58 306.95 490.21 305.19C484.8 304.32 457.72 299.94 408.97 292.05C360.76 299.94 333.97 304.32 328.61 305.19C316.25 306.95 306.54 316.59 303 327.98C292.41 368.87 288.7 383.2 291.87 370.96C289.46 380.26 296.48 389.32 306.08 389.32C351.21 389.32 471.02 389.32 517 389.32C524.45 389.32 529.9 382.29 528.03 375.08C530.49 384.57 526.42 368.87 515.82 327.98Z" id="bNTRL3WpD"></path><path d="M446.94 301.69C444.41 302.8 431.76 308.35 408.97 318.34C386.19 308.35 373.53 302.8 371 301.69C371.88 311.33 381.6 375.3 383.36 389.32C386.78 389.32 403.85 389.32 434.58 389.32C442.23 337.33 446.36 308.11 446.94 301.69Z" id="a18Y6k0JIp"></path><path d="M429.28 389.32L421.34 349.01C427.16 343.23 430.4 340.01 431.05 339.37C431.05 339.37 416.92 318.34 409.86 318.34C401.91 318.34 388.66 339.37 388.66 339.37C389.31 340.01 392.55 343.23 398.38 349.01L389.54 389.32L429.28 389.32Z" id="a1mhWpDSrz"></path><path d="M409.86 317.46L384.25 342.88C372.06 308.17 365.29 288.89 363.94 285.04C368.35 279.78 374.53 271.02 374.53 271.02C379.24 277.21 391.02 292.69 409.86 317.46Z" id="e3t2mi7bpk"></path><path d="M408.97 317.46L434.58 342.88C446.24 307.65 452.71 288.07 454.01 284.16C450.48 279.78 444.29 271.02 444.29 271.02C439.59 277.21 427.81 292.69 408.97 317.46Z" id="bHjrT8B7s"></path><path d="M374.53 271.02L408.97 318.34L444.29 271.02L444.29 232.46L374.53 232.46L374.53 271.02Z" id="i46zp7JoG8"></path><path d="M431.49 156.52C402.15 155.86 385.6 157.05 381.86 160.12C368.11 171.36 366.97 201.25 364.82 200.03C363.05 207.04 361.29 214.93 361.29 223.69C361.29 259.62 382.48 287.67 408.97 287.67C435.46 287.67 456.66 258.75 456.66 223.69C456.66 215.81 455.77 208.8 454.01 202.66C450.1 201.77 442.6 186.39 431.49 156.52Z" id="c3ORz7dIDx"></path><path d="M487.57 342L466.37 330.61L489.33 314.83L448.71 276.27L430.17 389.32L465.49 389.32L487.57 342Z" id="kgznUpTAL"></path><path d="M352.46 389.32L388.66 389.32L370.12 276.27L329.5 314.83L352.46 330.61L331.26 342L352.46 389.32Z" id="d2XxqE8vpc"></path><path d="M203.22 424.38L233.24 447.16L264.15 424.38L264.15 373.55L203.22 373.55L203.22 424.38Z" id="a7rLPdOKx8"></path><path d="M186.44 374.42C172.31 349.01 152.88 269.26 233.24 269.26C313.6 269.26 294.17 349.01 280.04 374.42C257.09 415.61 210.28 415.61 186.44 374.42Z" id="c3Ddp9BQo"></path><path d="M279.16 413.86C279.16 423.54 258.6 431.39 233.24 431.39C207.88 431.39 187.32 423.54 187.32 413.86C187.32 404.18 207.88 396.33 233.24 396.33C258.6 396.33 279.16 404.18 279.16 413.86Z" id="ajZjcNT86"></path><path d="M340.98 443.66C338.33 432.26 329.5 424.38 318.02 421.75C294.17 416.49 253.55 408.6 233.24 408.6C212.93 408.6 172.31 416.49 148.47 421.75C136.99 424.38 128.16 432.26 125.51 443.66C113.73 488.64 109.27 505.71 112.1 494.87C109.95 503.1 116.16 511.13 124.66 511.13C171.45 511.13 298.17 511.13 345.75 511.13C352.27 511.13 357.02 504.97 355.37 498.67C357.55 506.98 352.75 488.64 340.98 443.66Z" id="b1SFi5mYcK"></path><path d="M440.85 144.11L409.38 128.87L386.32 141.18C378.98 143.22 374.39 144.5 372.55 145.01C359.73 148.58 350.47 159.75 349.34 173.01C347.56 193.75 347.52 204.57 349.21 205.48C349.42 211.47 354.7 222.01 361.12 222.01C361.64 222.01 373.98 201.47 374.31 199.6C374.67 199.62 375.01 199.7 375.37 199.7C375.73 199.7 377.87 199.43 381.79 198.89C387.63 198.08 393.58 198.42 399.29 199.88C403.73 201.01 408.07 201.58 412.31 201.58C416.5 201.58 421.87 198.14 430.93 197.67C439.99 197.2 445.21 201.58 446.58 201.58C446.94 201.58 447.28 199.62 447.64 199.6C447.97 201.47 461.37 222.01 462.01 222.01C468.57 222.01 469.97 211.64 469.97 205.48C469.97 205.43 469.89 193.4 469.73 169.39C469.66 158.57 462.2 149.19 451.67 146.68C450.23 146.34 446.62 145.48 440.85 144.11Z" id="a4PKUopxq"></path></defs><g><g><g><use xlink:href="#dHuUfbdvq" opacity="1" fill="url(#gradienta8DWF0BQm)"></use></g><g><use xlink:href="#fmdoNDQG1" opacity="1" fill="#f6c59d" fill-opacity="1"></use><g><use xlink:href="#fmdoNDQG1" opacity="1" fill-opacity="0" stroke="#000000" stroke-width="1" stroke-opacity="0"></use></g></g><g><use xlink:href="#b5Yf4nCQhe" opacity="1" fill="#f6c59d" fill-opacity="1"></use><g><use xlink:href="#b5Yf4nCQhe" opacity="1" fill-opacity="0" stroke="#000000" stroke-width="1" stroke-opacity="0"></use></g></g><g><use xlink:href="#bNTRL3WpD" opacity="1" fill="#344a5e" fill-opacity="1"></use><g><use xlink:href="#bNTRL3WpD" opacity="1" fill-opacity="0" stroke="#000000" stroke-width="1" stroke-opacity="0"></use></g></g><g><use xlink:href="#a18Y6k0JIp" opacity="1" fill="#e8eae9" fill-opacity="1"></use><g><use xlink:href="#a18Y6k0JIp" opacity="1" fill-opacity="0" stroke="#000000" stroke-width="1" stroke-opacity="0"></use></g></g><g><use xlink:href="#a1mhWpDSrz" opacity="1" fill="#5a68f3" fill-opacity="1"></use><g><use xlink:href="#a1mhWpDSrz" opacity="1" fill-opacity="0" stroke="#000000" stroke-width="1" stroke-opacity="0"></use></g></g><g><use xlink:href="#e3t2mi7bpk" opacity="1" fill="#f3f3f3" fill-opacity="1"></use><g><use xlink:href="#e3t2mi7bpk" opacity="1" fill-opacity="0" stroke="#000000" stroke-width="1" stroke-opacity="0"></use></g></g><g><use xlink:href="#bHjrT8B7s" opacity="1" fill="#f3f3f3" fill-opacity="1"></use><g><use xlink:href="#bHjrT8B7s" opacity="1" fill-opacity="0" stroke="#000000" stroke-width="1" stroke-opacity="0"></use></g></g><g><use xlink:href="#i46zp7JoG8" opacity="1" fill="#f6c59d" fill-opacity="1"></use><g><use xlink:href="#i46zp7JoG8" opacity="1" fill-opacity="0" stroke="#000000" stroke-width="1" stroke-opacity="0"></use></g></g><g><use xlink:href="#c3ORz7dIDx" opacity="1" fill="#ffd9ad" fill-opacity="1"></use><g><use xlink:href="#c3ORz7dIDx" opacity="1" fill-opacity="0" stroke="#000000" stroke-width="1" stroke-opacity="0"></use></g></g><g><use xlink:href="#kgznUpTAL" opacity="1" fill="#415a6b" fill-opacity="1"></use><g><use xlink:href="#kgznUpTAL" opacity="1" fill-opacity="0" stroke="#000000" stroke-width="1" stroke-opacity="0"></use></g></g><g><use xlink:href="#d2XxqE8vpc" opacity="1" fill="#415a6b" fill-opacity="1"></use><g><use xlink:href="#d2XxqE8vpc" opacity="1" fill-opacity="0" stroke="#000000" stroke-width="1" stroke-opacity="0"></use></g></g><g><use xlink:href="#a7rLPdOKx8" opacity="1" fill="#f7b64c" fill-opacity="1"></use><g><use xlink:href="#a7rLPdOKx8" opacity="1" fill-opacity="0" stroke="#000000" stroke-width="1" stroke-opacity="0"></use></g></g><g><use xlink:href="#c3Ddp9BQo" opacity="1" fill="#694b4b" fill-opacity="1"></use><g><use xlink:href="#c3Ddp9BQo" opacity="1" fill-opacity="0" stroke="#000000" stroke-width="1" stroke-opacity="0"></use></g></g><g><use xlink:href="#ajZjcNT86" opacity="1" fill="#4abaa5" fill-opacity="1"></use><g><use xlink:href="#ajZjcNT86" opacity="1" fill-opacity="0" stroke="#000000" stroke-width="1" stroke-opacity="0"></use></g></g><g><use xlink:href="#b1SFi5mYcK" opacity="1" fill="#66c6b9" fill-opacity="1"></use><g><use xlink:href="#b1SFi5mYcK" opacity="1" fill-opacity="0" stroke="#000000" stroke-width="1" stroke-opacity="0"></use></g></g><g><use xlink:href="#a4PKUopxq" opacity="1" fill="#694b4b" fill-opacity="1"></use><g><use xlink:href="#a4PKUopxq" opacity="1" fill-opacity="0" stroke="#000000" stroke-width="1" stroke-opacity="0"></use></g></g></g></g></svg>