<?xml version="1.0" encoding="UTF-8" standalone="no"?>
<!DOCTYPE svg PUBLIC "-//W3C//DTD SVG 1.1//EN" "http://www.w3.org/Graphics/SVG/1.1/DTD/svg11.dtd">
<svg version="1.1" xmlns="http://www.w3.org/2000/svg" xmlns:xlink="http://www.w3.org/1999/xlink" preserveAspectRatio="xMidYMid meet" viewBox="0 0 640 640" width="640" height="640"><defs><path d="M462.91 80.32C532.74 80.32 589.35 136.93 589.35 206.77C589.35 285.35 589.35 398.91 589.35 478.55C589.35 545.45 535.13 599.68 468.23 599.68C384.71 599.68 257.72 599.68 174.81 599.68C106.24 599.68 50.65 544.09 50.65 475.51C50.65 396.47 50.65 278.66 50.65 198.41C50.65 133.19 103.51 80.32 168.73 80.32C252.85 80.32 380.46 80.32 462.91 80.32Z" id="b9G5ZES4z4"></path><linearGradient id="gradienti5cWEWtAuN" gradientUnits="userSpaceOnUse" x1="50.65" y1="78.17" x2="589.35" y2="599.68"><stop style="stop-color: #ffe53b;stop-opacity: 1" offset="0%"></stop><stop style="stop-color: #ff2525;stop-opacity: 1" offset="100%"></stop></linearGradient><path d="M208.78 309.47C208.78 313.78 205.79 317.58 201.41 318.85C196.83 320.17 160.2 330.76 155.63 332.09C146.86 334.62 140.88 342.24 140.88 350.86C140.88 358 140.88 415.12 140.88 422.26C140.88 435.81 152.57 446.8 167 446.8C177.01 446.8 227.07 446.8 317.17 446.8L317.17 281.13L208.78 281.13C208.78 298.13 208.78 307.58 208.78 309.47Z" id="f1CHHywgVj"></path><path d="M184.97 323.6C182.04 324.45 158.56 331.24 155.63 332.09C146.86 334.62 140.88 342.24 140.88 350.86C140.88 358 140.88 415.12 140.88 422.26C140.88 435.81 137.94 449.79 152.36 449.79C162.37 449.79 217.31 448.79 317.17 446.8C317.17 351.08 317.17 297.9 317.17 287.26C317.17 324.39 284.85 354.76 245.35 354.76C220.07 354.76 197.78 342.29 184.97 323.6Z" id="g9fbQh3gal"></path><path d="M299.88 238.18L297.59 195.22L193.93 195.22L193.93 238.18C191.48 238.18 190.12 238.18 189.85 238.18C184.44 238.18 180.05 242.3 180.05 247.38C180.05 248.61 180.05 258.43 180.05 259.65C180.05 264.74 184.44 268.86 189.85 268.86C190.26 268.86 192.33 268.86 196.04 268.86C196.68 272.59 197.03 274.67 197.1 275.09C197.9 279.77 200.48 284.03 204.36 287.07C206.45 288.71 223.22 301.85 225.32 303.49C228.14 305.69 231.69 306.9 235.35 306.9C237.35 306.9 253.35 306.9 255.35 306.9C259.01 306.9 262.56 305.69 265.38 303.49C267.48 301.85 284.25 288.71 286.34 287.07C290.22 284.03 292.8 279.77 293.6 275.09C293.67 274.67 294.03 272.59 294.66 268.86C298.37 268.86 300.44 268.86 300.85 268.86C306.26 268.86 310.64 264.74 310.64 259.65C310.64 258.43 310.64 248.61 310.64 247.38C310.64 242.3 306.26 238.18 300.85 238.18C300.72 238.18 300.4 238.18 299.88 238.18Z" id="cVLGJfLz1"></path><path d="M280 156.77L245.38 140L220 153.55C211.92 155.8 206.87 157.2 204.85 157.77C190.74 161.7 180.56 173.98 179.31 188.57C177.36 211.39 177.31 223.3 179.17 224.3C179.4 230.89 185.21 242.48 192.28 242.48C192.85 242.48 206.42 219.88 206.79 217.82C207.18 217.85 207.55 217.93 207.95 217.93C208.35 217.93 210.7 217.64 215.01 217.04C221.44 216.16 227.98 216.52 234.27 218.13C239.15 219.38 243.93 220 248.59 220C253.2 220 259.12 216.22 269.08 215.7C279.05 215.18 284.79 220 286.3 220C286.7 220 287.08 217.85 287.47 217.82C287.83 219.88 302.58 242.48 303.28 242.48C310.49 242.48 312.04 231.08 312.04 224.3C312.04 224.24 311.95 211.01 311.77 184.59C311.69 172.68 303.49 162.36 291.9 159.61C290.31 159.23 286.35 158.28 280 156.77Z" id="g4iU1voSQ"></path><path d="M284.53 403.85C273.71 403.85 264.94 395.61 264.94 385.44C264.94 374.4 264.94 286.04 264.94 274.99C264.94 264.83 273.71 256.58 284.53 256.58C304.11 256.58 460.82 256.58 480.41 256.58C491.23 256.58 500 264.83 500 274.99C500 286.04 500 374.4 500 385.44C500 395.61 491.23 403.85 480.41 403.85C441.23 403.85 304.11 403.85 284.53 403.85Z" id="apamG8n60"></path><path d="M421.64 365.41C420.78 359.31 403.7 354.76 397.15 354.76C394.22 354.76 370.72 354.76 367.78 354.76C361.24 354.76 344.16 359.31 343.29 365.41C342.52 370.84 342.52 397.97 343.29 446.8L343.29 459.07L421.64 459.07L421.64 446.8C422.41 397.97 422.41 370.84 421.64 365.41Z" id="cwXcMIZLE"></path><path d="M382.47 305.67C375.26 305.67 369.41 311.17 369.41 317.95C369.41 324.72 375.26 330.22 382.47 330.22C389.68 330.22 395.53 324.72 395.53 317.95C395.53 311.17 389.68 305.67 382.47 305.67Z" id="bDJVXmNV"></path><path d="M127.82 471.35C124.21 471.35 121.29 468.6 121.29 465.21C121.29 463.98 121.29 454.17 121.29 452.94C121.29 449.55 124.21 446.8 127.82 446.8C164.38 446.8 456.91 446.8 493.47 446.8C497.08 446.8 500 449.55 500 452.94C500 454.17 500 463.98 500 465.21C500 468.6 497.08 471.35 493.47 471.35C420.34 471.35 164.38 471.35 127.82 471.35Z" id="c5jQQIOYI3"></path><path d="M160.22 416.12C171.04 416.12 179.81 424.36 179.81 434.53C179.81 435.35 179.81 439.44 179.81 446.8L140.63 446.8C140.63 440.26 140.63 436.17 140.63 434.53C140.63 424.36 148.87 416.12 159.04 416.12C159.28 416.12 158.26 416.12 160.22 416.12Z" id="bM0o0STGj"></path></defs><g><g><g><use xlink:href="#b9G5ZES4z4" opacity="1" fill="url(#gradienti5cWEWtAuN)"></use></g><g><use xlink:href="#f1CHHywgVj" opacity="1" fill="#f6c59d" fill-opacity="1"></use><g><use xlink:href="#f1CHHywgVj" opacity="1" fill-opacity="0" stroke="#000000" stroke-width="1" stroke-opacity="0"></use></g></g><g><use xlink:href="#g9fbQh3gal" opacity="1" fill="#002998" fill-opacity="1"></use><g><use xlink:href="#g9fbQh3gal" opacity="1" fill-opacity="0" stroke="#000000" stroke-width="1" stroke-opacity="0"></use></g></g><g><use xlink:href="#cVLGJfLz1" opacity="1" fill="#ffd9ad" fill-opacity="1"></use><g><use xlink:href="#cVLGJfLz1" opacity="1" fill-opacity="0" stroke="#000000" stroke-width="1" stroke-opacity="0"></use></g></g><g><use xlink:href="#g4iU1voSQ" opacity="1" fill="#694b4b" fill-opacity="1"></use><g><use xlink:href="#g4iU1voSQ" opacity="1" fill-opacity="0" stroke="#000000" stroke-width="1" stroke-opacity="0"></use></g></g><g><use xlink:href="#apamG8n60" opacity="1" fill="#d5dced" fill-opacity="1"></use><g><use xlink:href="#apamG8n60" opacity="1" fill-opacity="0" stroke="#000000" stroke-width="1" stroke-opacity="0"></use></g></g><g><use xlink:href="#cwXcMIZLE" opacity="1" fill="#afb9d2" fill-opacity="1"></use><g><use xlink:href="#cwXcMIZLE" opacity="1" fill-opacity="0" stroke="#000000" stroke-width="1" stroke-opacity="0"></use></g></g><g><use xlink:href="#bDJVXmNV" opacity="1" fill="#ffffff" fill-opacity="1"></use><g><use xlink:href="#bDJVXmNV" opacity="1" fill-opacity="0" stroke="#000000" stroke-width="1" stroke-opacity="0"></use></g></g><g><use xlink:href="#c5jQQIOYI3" opacity="1" fill="#ffbe6f" fill-opacity="1"></use><g><use xlink:href="#c5jQQIOYI3" opacity="1" fill-opacity="0" stroke="#000000" stroke-width="1" stroke-opacity="0"></use></g></g><g><use xlink:href="#bM0o0STGj" opacity="1" fill="#ffd9ad" fill-opacity="1"></use><g><use xlink:href="#bM0o0STGj" opacity="1" fill-opacity="0" stroke="#000000" stroke-width="1" stroke-opacity="0"></use></g></g></g></g></svg>