<!DOCTYPE svg PUBLIC "-//W3C//DTD SVG 1.1//EN" "http://www.w3.org/Graphics/SVG/1.1/DTD/svg11.dtd">
<svg xmlns="http://www.w3.org/2000/svg" xmlns:xlink="http://www.w3.org/1999/xlink" width="640" height="640">
  <defs>
    <path d="M320 0C143.27 0 0 143.27 0 320s143.27 320 320 320 320-143.27 320-320S496.73 0 320 0z" id="a"/>
    <path d="M402.14 198.05c-17.13 17.13-15.12 32.75-15.12 32.75-.5 3.53-3.02 6.05-4.53 7.06-4.54 3.02-11.59 2.01-13.1-2.52-3.53-9.58-2.02-21.67 1.51-33.77-4.59 5.14-41.27 46.27-45.86 51.41-4.03 4.53-10.58 5.04-15.12 1-5.04-4.03-5.54-11.08-1.51-16.12 3.93-4.59 35.38-41.27 39.31-45.86.5-.5.5-1.01 0-1.51-.51-.51-1.01-.51-1.52 0-4.38 5.04-39.45 45.35-43.84 50.39-3.53 4.03-9.57 5.55-14.11 2.52-.5 0-.5-.5-1.01-.5-4.53-4.03-5.04-11.09-1-15.62 4.18-4.79 37.64-43.09 41.82-47.88.51-.5.51-1.01 0-1.51-.5-.5-1-.5-1.51 0-3.22 3.68-29.03 33.11-32.25 36.79-4.03 5.04-11.59 5.04-16.13 0-3.52-4.03-3.02-10.08.51-14.11 3.52-4.03 31.75-36.29 35.27-40.32.51-.5.51-1.01 0-1.51-.5-.5-1.01-.5-1.51 0-2.27 2.52-20.41 22.68-22.68 25.2-3.52 4.03-10.07 4.53-14.11 1-4.53-3.52-5.04-10.58-1-15.11 2.92-3.23 26.3-29.03 29.22-32.26 12.6-13.6 26.71-26.2 41.83-36.78 1.31-.91 11.79-8.17 13.1-9.07 0 0 9.07-6.05 19.66-14.62 4.48 4.59 40.36 41.27 44.85 45.86-4.54 7.56-8.07 14.61-8.07 19.15-2.62 11.19 4.04 39.31-13.1 55.94z" id="b"/>
    <path d="M366.87 66.02l65 66.01c43.24-44.14 67.26-68.67 72.07-73.57-26.21-18.65-55.44-33.26-87.18-43.34-6.66 6.78-23.29 23.75-49.89 50.9z" id="c"/>
    <path d="M336.63 501.92c-12.6 14.11-26.71 26.21-41.83 36.79-1.31.91-11.79 8.16-13.1 9.07 0 0-9.07 6.05-19.65 14.61-4.49-4.58-40.37-41.27-44.85-45.85 5.04-7.56 8.56-14.62 8.06-19.15 0 0-4.03-39.31 13.1-55.94 17.14-17.14 15.12-32.76 15.12-32.76.5-3.52 3.02-6.04 4.54-7.05 4.53-3.03 11.59-2.02 13.1 2.52 3.53 9.57 2.01 21.67-1.51 33.76 4.53-5.09 40.82-45.81 45.35-50.9 4.03-4.53 10.58-5.04 15.12-1 5.04 4.03 5.54 11.08 1.51 16.12-3.93 4.59-35.38 41.27-39.31 45.86-.5.5-.5 1.01 0 1.51.51.51 1.01.51 1.52 0 4.38-5.04 39.45-45.35 43.84-50.39 3.53-4.03 9.57-5.55 14.11-2.52.5 0 .5.5 1.01.5 4.53 4.03 5.04 11.09 1 15.62-4.18 4.79-37.64 43.09-41.82 47.88-.51.5-.51 1.01 0 1.51.5.5 1 .5 1.51 0 3.22-3.68 29.03-33.11 32.25-36.79 4.03-5.04 11.59-5.04 16.13 0 3.52 4.03 3.02 10.08-.51 14.11-3.52 4.03-31.75 36.29-35.27 40.32-.51.5-.51 1.01 0 1.51.5.5 1.01.5 1.51 0 2.22-2.52 19.95-22.68 22.17-25.2 3.53-4.03 10.08-4.53 14.11-1 5.55 3.52 6.05 10.07 2.02 14.61-5.85 6.45-26.31 29.03-29.23 32.25z" id="d"/>
    <path d="M222.74 624.88c3.33-3.39 19.96-20.36 49.89-50.9l-65.01-66.01-72.06 73.57c37.29 22.18 66.35 36.62 87.18 43.34z" id="e"/>
    <path d="M517.04 423.31c-7.56-5.04-14.61-8.57-19.15-8.07 0 0-39.31 4.04-55.94-13.1-17.13-17.13-32.75-15.12-32.75-15.12-3.53-.5-6.05-3.02-7.06-4.53-3.02-4.54-2.01-11.59 2.52-13.1 9.58-3.53 21.67-2.02 33.77 1.51-5.14-4.59-46.27-41.27-51.41-45.86-4.53-4.03-5.04-10.58-1-15.12 4.03-5.04 11.08-5.54 16.12-1.51 4.59 3.93 41.27 35.38 45.86 39.31.5.5 1.01.5 1.51 0 .51-.51.51-1.01 0-1.52-5.04-4.38-45.35-39.45-50.39-43.84-4.03-3.53-5.55-9.57-2.52-14.11 0-.5.5-.5.5-1.01 4.03-4.53 11.09-5.04 15.62-1 4.79 4.18 43.09 37.64 47.88 41.82.5.51 1.01.51 1.51 0 .5-.5.5-1 0-1.51-3.68-3.22-33.11-29.03-36.79-32.25-5.04-4.03-5.04-11.59 0-16.13 4.03-3.52 10.08-3.02 14.11.51 4.03 3.52 36.29 31.75 40.32 35.27.5.51 1.01.51 1.51 0 .5-.5.5-1.01 0-1.51-2.52-2.27-22.68-20.41-25.2-22.68-4.03-3.52-4.53-10.07-1-14.11 3.52-4.53 10.58-5.04 15.11-1 3.23 2.92 29.03 26.3 32.26 29.22 14.11 12.6 26.2 26.71 36.78 41.83.91 1.31 8.17 11.79 9.07 13.1 0 0 6.05 8.57 14.62 19.66-9.17 8.97-41.27 40.36-45.86 44.85z" id="f"/>
    <path d="M624.88 417.26c-3.39-3.33-20.36-19.96-50.9-49.89l-66.01 65.01 73.57 72.06c22.18-37.29 36.62-66.35 43.34-87.18z" id="g"/>
    <path d="M238.36 332.09c-4.58-3.93-41.27-35.37-45.86-39.3-.5-.51-1-.51-1.51 0-.5.5-.5 1.01 0 1.51 5.04 4.38 45.36 39.46 50.4 43.84 4.03 3.53 5.54 9.58 2.52 14.11 0 .51-.51.51-.51 1.01-4.03 4.54-11.09 5.04-15.62 1.01-4.79-4.18-43.09-37.65-47.87-41.83-.51-.5-1.01-.5-1.52 0-.5.5-.5 1.01 0 1.51 3.68 3.23 33.11 29.03 36.79 32.25 5.04 4.04 5.04 11.6 0 16.13-4.03 3.53-10.08 3.02-14.11-.5-4.03-3.53-36.28-31.75-40.31-35.28-.51-.5-1.01-.5-1.52 0-.5.51-.5 1.01 0 1.51 2.52 2.22 22.68 19.96 25.2 22.18 4.03 3.52 4.54 10.07 1.01 14.11-3.53 4.53-10.58 5.04-14.62 1-3.27-2.92-29.48-26.3-32.75-29.22-13.61-12.6-26.21-26.71-36.79-41.83-.91-1.31-8.16-11.79-9.07-13.1 0 0-6.05-9.07-14.61-19.66 4.58-4.48 41.27-40.36 45.85-44.85 7.56 5.04 14.62 8.57 19.15 8.07 0 0 39.31-4.04 55.94 13.1 17.14 17.13 32.76 15.12 32.76 15.12 3.52.5 6.04 3.02 7.05 4.53 3.03 4.54 2.02 11.59-2.52 13.1-9.57 3.53-21.67 2.02-33.76-1.51 5.09 4.59 45.81 41.27 50.9 45.86 4.53 4.03 5.04 10.58 1.51 15.62-4.03 5.04-11.09 5.55-16.13 1.51z" id="h"/>
    <path d="M66.02 273.13l66.01-65c-44.14-43.54-68.67-67.73-73.57-72.57-18.65 26.71-33.26 55.94-43.34 87.68 6.78 6.66 23.75 23.29 50.9 49.89z" id="i"/>
  </defs>
  <use xlink:href="#a" fill="#002998" fill-opacity="0"/>
  <use xlink:href="#a" fill-opacity="0" stroke="#000" stroke-opacity="0"/>
  <use xlink:href="#b" fill="#ffb3a2"/>
  <use xlink:href="#b" fill-opacity="0" stroke="#000" stroke-opacity="0"/>
  <use xlink:href="#c" fill="#ffd05b"/>
  <use xlink:href="#c" fill-opacity="0" stroke="#000" stroke-opacity="0"/>
  <use xlink:href="#d" fill="#fbd6cd"/>
  <use xlink:href="#d" fill-opacity="0" stroke="#000" stroke-opacity="0"/>
  <use xlink:href="#e" fill="#324a5e"/>
  <use xlink:href="#e" fill-opacity="0" stroke="#000" stroke-opacity="0"/>
  <g>
    <use xlink:href="#f" fill="#bd7f71"/>
    <use xlink:href="#f" fill-opacity="0" stroke="#000" stroke-opacity="0"/>
  </g>
  <g>
    <use xlink:href="#g" fill="#54c0eb"/>
    <use xlink:href="#g" fill-opacity="0" stroke="#000" stroke-opacity="0"/>
  </g>
  <g>
    <use xlink:href="#h" fill="#ffc6b9"/>
    <use xlink:href="#h" fill-opacity="0" stroke="#000" stroke-opacity="0"/>
  </g>
  <g>
    <use xlink:href="#i" fill="#4cdbc4"/>
    <use xlink:href="#i" fill-opacity="0" stroke="#000" stroke-opacity="0"/>
  </g>
</svg>
